<?xml version="1.0" encoding="UTF-8" standalone="no"?>
<!DOCTYPE svg PUBLIC "-//W3C//DTD SVG 1.1//EN" "http://www.w3.org/Graphics/SVG/1.1/DTD/svg11.dtd">
<svg version="1.1" xmlns="http://www.w3.org/2000/svg" xmlns:xlink="http://www.w3.org/1999/xlink" preserveAspectRatio="xMidYMid meet" viewBox="0 0 640 640" width="640" height="640"><defs><path d="M636.92 71.39C636.92 102.65 611.58 128 580.31 128C496.1 128 316.14 128 235.94 128C193.58 128 159.23 162.34 159.23 204.71C159.23 266.17 159.23 370.42 159.23 431.03C159.23 475.75 195.48 512 240.2 512C320.76 512 492.38 512 575.67 512C612.33 512 641.55 542.64 639.81 579.26C639.23 591.41 640.45 565.85 639.81 579.32C638.19 613.29 610.18 640 576.17 640C460.94 640 227.94 640 125.69 640C56.27 640 0 583.73 0 514.31C0 411.45 0 229.41 0 126.76C0 56.75 56.75 0 126.76 0C228.79 0 452.43 0 565.54 0C604.96 0 636.92 31.96 636.92 71.39C636.92 82.71 636.92 57.11 636.92 71.39Z" id="cZVYGcMG7"></path><path d="M576.31 247.92C576.31 271.82 556.93 291.19 533.03 291.19C471.63 291.19 334.2 291.19 273.68 291.19C247.35 291.19 226 269.85 226 243.52C226 231.87 226 243.74 226 231.87C226 206.15 246.85 185.3 272.57 185.3C333.32 185.3 464.81 185.3 524.51 185.3C553.12 185.3 576.31 208.49 576.31 237.1C576.31 247.92 576.31 235.4 576.31 247.92Z" id="f5At0WL0rw"></path><path d="M576.31 406.75C576.31 430.65 556.93 450.02 533.03 450.02C471.63 450.02 334.2 450.02 273.68 450.02C247.35 450.02 226 428.68 226 402.35C226 390.71 226 402.57 226 390.71C226 364.99 246.85 344.14 272.57 344.14C333.32 344.14 464.81 344.14 524.51 344.14C553.12 344.14 576.31 367.33 576.31 395.93C576.31 406.75 576.31 394.23 576.31 406.75Z" id="ibMz7wYJD"></path></defs><g><g><g><use xlink:href="#cZVYGcMG7" opacity="1" fill="#00d1b2" fill-opacity="1"></use><g><use xlink:href="#cZVYGcMG7" opacity="1" fill-opacity="0" stroke="#000000" stroke-width="0" stroke-opacity="1"></use></g></g><g><use xlink:href="#f5At0WL0rw" opacity="1" fill="#00d1b2" fill-opacity="1"></use><g><use xlink:href="#f5At0WL0rw" opacity="1" fill-opacity="0" stroke="#000000" stroke-width="0" stroke-opacity="1"></use></g></g><g><use xlink:href="#ibMz7wYJD" opacity="1" fill="#00d1b2" fill-opacity="1"></use><g><use xlink:href="#ibMz7wYJD" opacity="1" fill-opacity="0" stroke="#000000" stroke-width="0" stroke-opacity="1"></use></g></g></g></g></svg>